<?xml version="1.0" standalone="no"?> <!DOCTYPE svg PUBLIC "-//W3C//DTD SVG 20010904//EN" "http://www.w3.org/TR/2001/REC-SVG-20010904/DTD/svg10.dtd"> <svg version="1.0" xmlns="http://www.w3.org/2000/svg" width="373.000000pt" height="135.000000pt" viewBox="0 0 373.000000 135.000000" preserveAspectRatio="xMidYMid meet"> <g transform="translate(0.000000,135.000000) scale(0.100000,-0.100000)" fill="#1f4795" stroke="none"> <path d="M2025 1344 c-1004 -22 -1697 -117 -1926 -264 -335 -215 246 -545 1221 -694 91 -13 210 -30 265 -35 55 -6 119 -14 143 -17 l42 -5 0 -165 0 -164 90 0 90 0 0 160 0 161 58 -5 c87 -8 387 -18 382 -13 -3 3 -72 19 -155 36 -82 18 -180 39 -217 47 l-68 16 0 99 0 99 150 0 150 0 0 90 0 90 -150 0 -150 0 0 145 0 145 -90 0 -90 0 0 -145 0 -145 -150 0 -150 0 0 -90 0 -90 150 0 150 0 0 -79 0 -79 -112 29 c-424 111 -718 257 -718 356 0 64 65 114 218 167 168 58 446 112 802 156 322 39 1199 119 1560 142 173 11 187 13 127 20 -194 19 -1249 40 -1622 32z"/> <path d="M2170 1078 c-24 -48 -42 -57 -114 -59 -30 0 -29 -1 22 -27 l52 -26 0 -66 1 -65 28 55 29 55 63 5 64 5 -52 27 c-54 29 -55 30 -66 118 -3 22 -5 20 -27 -22z"/> </g> </svg>